<svg width="16" height="16" fill="none" xmlns="http://www.w3.org/2000/svg"><path d="M0 1.04A.533.533 0 0 1 .533.505h1.6a.533.533 0 0 1 .518.404l.432 1.73h12.384a.534.534 0 0 1 .524.63l-1.6 8.534a.533.533 0 0 1-.524.435h-9.6a.533.533 0 0 1-.524-.435L2.144 3.287l-.427-1.714H.533A.533.533 0 0 1 0 1.039Zm3.309 2.666 1.4 7.467h8.715l1.401-7.467H3.309Zm2.024 8.533a2.133 2.133 0 1 0 0 4.267 2.133 2.133 0 0 0 0-4.267Zm7.467 0a2.133 2.133 0 1 0 0 4.267 2.133 2.133 0 0 0 0-4.267Zm-7.467 1.067a1.067 1.067 0 1 1 0 2.133 1.067 1.067 0 0 1 0-2.133Zm7.467 0a1.067 1.067 0 1 1 0 2.133 1.067 1.067 0 0 1 0-2.133Z" fill="#000"/></svg>